<svg width="18" height="18" viewBox="0 0 18 18" fill="none" xmlns="http://www.w3.org/2000/svg">
<path d="M16 0H2C0.9 0 0 0.9 0 2V16C0 17.1 0.9 18 2 18H16C17.1 18 18 17.1 18 16V2C18 0.9 17.1 0 16 0ZM16 15C16 15.5523 15.5523 16 15 16H3C2.44772 16 2 15.5523 2 15V11.42L2.28289 11.7029C2.67342 12.0934 3.30658 12.0934 3.69711 11.7029L6.28289 9.11711C6.67342 8.72658 7.30658 8.72658 7.69711 9.11711L10.2838 11.7038C10.674 12.094 11.3064 12.0944 11.6971 11.7047L14.99 8.42L16 9.43V15ZM16 6.59L15.698 6.28799C15.3071 5.89712 14.6733 5.89752 14.2829 6.28887L11.6971 8.88113C11.3067 9.27248 10.6729 9.27288 10.282 8.88201L7.69711 6.29711C7.30658 5.90658 6.67342 5.90658 6.28289 6.29711L3.70067 8.87933C3.30876 9.27124 2.67285 9.26965 2.28291 8.87577L2 8.59V3C2 2.44772 2.44772 2 3 2H15C15.5523 2 16 2.44772 16 3V6.59Z" fill="currentColor"/>
</svg>
