<svg width="20" height="20" viewBox="0 0 20 20" fill="none" xmlns="http://www.w3.org/2000/svg">
<path d="M3.67982 17H16.3202C17.6128 17 18.4185 15.6253 17.7722 14.5305L11.452 3.82111C10.8058 2.7263 9.19424 2.7263 8.54795 3.82111L2.22777 14.5305C1.58148 15.6253 2.38724 17 3.67982 17ZM10 11.2378C9.53837 11.2378 9.16067 10.8674 9.16067 10.4147V8.76834C9.16067 8.3156 9.53837 7.94517 10 7.94517C10.4616 7.94517 10.8393 8.3156 10.8393 8.76834V10.4147C10.8393 10.8674 10.4616 11.2378 10 11.2378ZM10.8393 14.5305H9.16067V12.8842H10.8393V14.5305Z" fill="currentColor"/>
</svg>
