<svg width="16" height="16" viewBox="0 0 16 16" fill="none" xmlns="http://www.w3.org/2000/svg">
<path d="M10.6667 7.36364H10V2.27273C10 1.57273 9.4 1 8.66667 1H7.33333C6.6 1 6 1.57273 6 2.27273V7.36364H5.33333C3.49333 7.36364 2 8.78909 2 10.5455V15H14V10.5455C14 8.78909 12.5067 7.36364 10.6667 7.36364ZM7.33333 2.27273H8.66667V7.36364H7.33333V2.27273ZM12.6667 13.7273H11.3333V11.8182C11.3333 11.4682 11.0333 11.1818 10.6667 11.1818C10.3 11.1818 10 11.4682 10 11.8182V13.7273H8.66667V11.8182C8.66667 11.4682 8.36667 11.1818 8 11.1818C7.63333 11.1818 7.33333 11.4682 7.33333 11.8182V13.7273H6V11.8182C6 11.4682 5.7 11.1818 5.33333 11.1818C4.96667 11.1818 4.66667 11.4682 4.66667 11.8182V13.7273H3.33333V10.5455C3.33333 9.49545 4.23333 8.63636 5.33333 8.63636H10.6667C11.7667 8.63636 12.6667 9.49545 12.6667 10.5455V13.7273Z" fill="currentColor"/>
</svg>
