<svg width="12" height="12" viewBox="0 0 12 12" fill="none" xmlns="http://www.w3.org/2000/svg">
<path d="M9.40257 1.68829C9.65363 1.43724 10.0607 1.43724 10.3117 1.68829C10.5628 1.93934 10.5628 2.34637 10.3117 2.59743L6.90914 6L10.3117 9.40257C10.5628 9.65363 10.5628 10.0607 10.3117 10.3117C10.0607 10.5628 9.65363 10.5628 9.40257 10.3117L6 6.90914L2.59743 10.3117C2.34637 10.5628 1.93934 10.5628 1.68829 10.3117C1.43724 10.0607 1.43724 9.65363 1.68829 9.40257L5.09086 6L1.68829 2.59743C1.43724 2.34637 1.43724 1.93934 1.68829 1.68829C1.93934 1.43724 2.34637 1.43724 2.59743 1.68829L6 5.09086L9.40257 1.68829Z" fill="currentColor"/>
</svg>
