<svg width="16" height="16" viewBox="0 0 16 16" fill="none" xmlns="http://www.w3.org/2000/svg">
<path fill-rule="evenodd" clip-rule="evenodd" d="M7.72732 2.27274C6.55056 2.27274 5.41904 2.75069 4.58248 3.60626C3.74545 4.46231 3.27274 5.62635 3.27274 6.84302C3.27274 8.61738 4.40234 10.344 5.6487 11.6895C6.25971 12.3492 6.87278 12.8893 7.33371 13.2647C7.48325 13.3865 7.61625 13.4905 7.72732 13.5752C7.83838 13.4905 7.97139 13.3865 8.12093 13.2647C8.58186 12.8893 9.19493 12.3492 9.80594 11.6895C11.0523 10.344 12.1819 8.61738 12.1819 6.84302C12.1819 5.62635 11.7092 4.46231 10.8722 3.60626C10.0356 2.75069 8.90407 2.27274 7.72732 2.27274ZM7.72732 14.3637C7.36883 14.8895 7.36867 14.8894 7.36849 14.8893L7.36678 14.8881L7.36288 14.8855L7.34966 14.8763C7.33847 14.8685 7.32259 14.8574 7.30231 14.8431C7.26177 14.8144 7.20366 14.7726 7.13048 14.7186C6.98418 14.6105 6.77731 14.4529 6.53001 14.2515C6.03639 13.8495 5.37672 13.2688 4.71499 12.5544C3.41588 11.152 2 9.11829 2 6.84302C2 5.29791 2.60002 3.81329 3.67247 2.71647C4.74539 1.61916 6.20367 1 7.72732 1C9.25097 1 10.7093 1.61916 11.7822 2.71647C12.8546 3.81329 13.4546 5.29791 13.4546 6.84302C13.4546 9.11829 12.0388 11.152 10.7396 12.5544C10.0779 13.2688 9.41825 13.8495 8.92463 14.2515C8.67733 14.4529 8.47046 14.6105 8.32416 14.7186C8.25098 14.7726 8.19287 14.8144 8.15233 14.8431C8.13205 14.8574 8.11617 14.8685 8.10498 14.8763L8.09176 14.8855L8.08786 14.8881L8.0866 14.889C8.08642 14.8891 8.08581 14.8895 7.72732 14.3637ZM7.72732 14.3637L8.08581 14.8895C7.86956 15.037 7.58474 15.0367 7.36849 14.8893L7.72732 14.3637Z" fill="currentColor"/>
<path fill-rule="evenodd" clip-rule="evenodd" d="M7.72727 5.66678C7.14151 5.66678 6.66666 6.14163 6.66666 6.7274C6.66666 7.31316 7.14151 7.78801 7.72727 7.78801C8.31304 7.78801 8.78789 7.31316 8.78789 6.7274C8.78789 6.14163 8.31304 5.66678 7.72727 5.66678ZM5.39392 6.7274C5.39392 5.43872 6.4386 4.39404 7.72727 4.39404C9.01595 4.39404 10.0606 5.43872 10.0606 6.7274C10.0606 8.01607 9.01595 9.06075 7.72727 9.06075C6.4386 9.06075 5.39392 8.01607 5.39392 6.7274Z" fill="currentColor"/>
</svg>
