<svg width="80" height="21" viewBox="0 0 80 21" fill="none" xmlns="http://www.w3.org/2000/svg">
<path fill-rule="evenodd" clip-rule="evenodd" d="M8.45239 0.197498L1.26783 3.45959L0.494437 3.81715C0.192634 3.95654 0 4.25534 0 4.58352V4.96639V4.96671V5.41303V8.71293V8.71575V9.54244C0 9.87062 0.192634 10.1694 0.494437 10.3088L1.10026 10.5889C1.14977 10.6167 1.20055 10.6432 1.25259 10.6676L8.50761 14.0463C10.6907 15.0174 12.034 12.0875 9.85097 11.1168L3.43091 8.1244C3.32872 8.07689 3.26366 7.97594 3.26366 7.86499V6.27629C3.26366 6.1644 3.32967 6.06282 3.43281 6.01594L9.24768 3.37582C9.32448 3.34082 9.41271 3.34082 9.49014 3.3752L17.4002 7.02579L18.701 5.81309V4.0775L10.2702 0.193747C9.69198 -0.0659823 9.02934 -0.0644192 8.45239 0.197498ZM18.2073 9.6944L17.6015 9.41436C17.552 9.38654 17.5012 9.35997 17.4488 9.33591L10.1941 5.95693C8.01104 4.98583 6.66769 7.91537 8.85076 8.88646L15.2708 11.8788C15.3727 11.9263 15.4381 12.0273 15.4381 12.1382V13.7269C15.4381 13.8388 15.3717 13.9404 15.2689 13.9873L9.45405 16.6274C9.37725 16.6624 9.28871 16.6624 9.21159 16.628L1.30155 12.9774L0.000721807 14.1901V15.9257L8.43154 19.8095C9.00975 20.0689 9.67207 20.0676 10.2493 19.8057L17.4336 16.5436L18.2073 16.1861C18.5091 16.0464 18.7017 15.7479 18.7017 15.4197V15.0368V15.0365V14.5902V11.2903V11.2875V10.4608C18.7017 10.1326 18.5091 9.8338 18.2073 9.6944ZM37.635 5.03211H37.9111C38.7371 5.03211 39.4064 5.69128 39.4064 6.50485V15.4766C39.4064 15.827 39.2062 16.1473 38.8888 16.3052L34.4002 18.5387C34.1517 18.6624 33.7449 18.6624 33.496 18.5387L30.186 16.8915L26.8764 18.5387C26.6276 18.6624 26.2207 18.6624 25.9719 18.5387L21.4833 16.3052C21.1662 16.1473 20.966 15.827 20.966 15.4766V6.50485C20.966 5.69128 21.6356 5.03211 22.4613 5.03211H22.7374C23.5632 5.03211 24.2325 5.69128 24.2325 6.50485V14.1676C24.2325 14.1967 24.2493 14.2233 24.2753 14.2364L26.3404 15.2638C26.3867 15.2869 26.4619 15.2869 26.5079 15.2638L28.4866 14.2792H28.4901V8.32733C28.4901 8.25763 28.4939 8.18918 28.5003 8.1223C28.5228 7.48626 28.9062 6.94242 29.4555 6.68081C29.6764 6.57423 29.922 6.51422 30.1838 6.51422C30.1838 6.51422 30.1851 6.51454 30.1873 6.51454L30.1885 6.51432L30.1899 6.51422C31.1241 6.51422 31.882 7.26059 31.882 8.32733V14.2792H31.8861L33.8645 15.2638C33.9108 15.2869 33.986 15.2869 34.0321 15.2638L36.0968 14.2364C36.1231 14.2233 36.1399 14.1967 36.1399 14.1676V6.50485C36.1399 5.69128 36.8092 5.03211 37.635 5.03211ZM56.5353 13.3088V13.9986C56.5353 14.0614 56.5753 14.1173 56.6349 14.1386L60.1198 15.4238C60.1722 15.4422 60.2569 15.4413 60.3086 15.4213L62.8792 14.4815C63.3587 14.3061 63.8957 14.3818 64.306 14.6824C65.247 15.3719 65.0654 16.8087 63.9814 17.2497L61.036 18.448C61.0255 18.4521 61.0125 18.4555 61.0011 18.4593L60.7342 18.5624C60.4222 18.6831 60.0773 18.6875 59.7625 18.5746L59.48 18.468L59.4698 18.4652L59.4636 18.4634C59.4602 18.4624 59.4568 18.4613 59.4537 18.4602L54.0755 16.2499C53.5877 16.0545 53.2688 15.5879 53.2688 15.0694V13.1947V10.1351V7.76975C53.2688 7.39938 53.5046 7.0687 53.8584 6.94337L59.4537 4.91148C60.2585 4.62077 60.5082 4.71814 60.9338 4.8841L61.0052 4.91184L61.036 4.92367L63.7617 6.00603C64.8046 6.41985 65.0385 7.77069 64.194 8.50206L64.1654 8.52675C63.7484 8.88774 63.1635 8.99432 62.6431 8.80398L60.288 7.94259C60.2477 7.92696 60.1814 7.92634 60.1407 7.94072L56.6349 9.23343C56.5753 9.25468 56.5353 9.31063 56.5353 9.37314V10.0104V13.3088ZM41.6825 6.64212C41.6825 5.75385 42.4137 5.03373 43.3156 5.03373C44.2178 5.03373 44.9487 5.75385 44.9487 6.64212V16.86C44.9487 17.6595 44.2908 18.3078 43.479 18.3078H43.1522C42.3407 18.3078 41.6825 17.6595 41.6825 16.86V6.64212ZM51.5973 3.33887H50.5561V2.56875C50.5561 1.68048 49.8249 0.960364 48.9227 0.960364C48.0207 0.960364 47.2896 1.68048 47.2896 2.56875V16.8607C47.2896 17.6602 47.9477 18.3085 48.7595 18.3085H49.0861C49.8982 18.3085 50.5561 17.6602 50.5561 16.8607V6.55595H51.5973C52.4992 6.55595 53.2304 5.83584 53.2304 4.94726C53.2304 4.05899 52.4992 3.33887 51.5973 3.33887ZM74.0905 4.81994L79.3497 6.83027C79.7413 6.97998 80 7.3516 80 7.76542V16.8747C80 17.6742 79.3418 18.3224 78.53 18.3224H78.2031C77.3913 18.3224 76.7331 17.6742 76.7331 16.8747V9.23628C76.7331 9.17502 76.695 9.12001 76.637 9.09782L73.6729 7.96482C73.6018 7.93763 73.5234 7.9367 73.4514 7.96232L70.1515 9.1297C70.0916 9.15096 70.0516 9.2069 70.0516 9.26941V16.8931C70.0516 17.6926 69.3937 18.3409 68.5816 18.3409H68.255C67.5911 18.3409 67.0304 17.9071 66.8479 17.3116C66.8006 17.1694 66.7743 17.0179 66.7743 16.86V1.701C66.7743 0.812417 67.5054 0.0923011 68.4077 0.0923011C69.3093 0.0923011 70.0408 0.812417 70.0408 1.701V5.95762L73.1188 4.80775C73.4333 4.69648 73.7786 4.70086 74.0905 4.81994Z" fill="#F55523"/>
</svg>
