<svg width="14" height="14" viewBox="0 0 14 14" fill="none" xmlns="http://www.w3.org/2000/svg">
<path d="M7 0C3.129 0 0 3.129 0 7C0 10.871 3.129 14 7 14C10.871 14 14 10.871 14 7C14 3.129 10.871 0 7 0ZM10.01 10.01C9.737 10.283 9.296 10.283 9.023 10.01L7 7.987L4.977 10.01C4.704 10.283 4.263 10.283 3.99 10.01C3.717 9.737 3.717 9.296 3.99 9.023L6.013 7L3.99 4.977C3.717 4.704 3.717 4.263 3.99 3.99C4.263 3.717 4.704 3.717 4.977 3.99L7 6.013L9.023 3.99C9.296 3.717 9.737 3.717 10.01 3.99C10.283 4.263 10.283 4.704 10.01 4.977L7.987 7L10.01 9.023C10.276 9.289 10.276 9.737 10.01 10.01Z" fill="currentColor"/>
</svg>
