<svg width="20" height="20" viewBox="0 0 20 20" fill="none" xmlns="http://www.w3.org/2000/svg">
<path fill-rule="evenodd" clip-rule="evenodd" d="M6.62281 2C7.04428 2 7.38595 2.34167 7.38595 2.76314V3.92983H12.6141V2.76314C12.6141 2.34167 12.9558 2 13.3773 2C13.7988 2 14.1404 2.34167 14.1404 2.76314V3.92983H16.2719C17.2263 3.92983 18 4.70351 18 5.65789V16.2719C18 17.2263 17.2263 18 16.2719 18H3.72806C2.77367 18 2 17.2263 2 16.2719V5.65789C2 4.70351 2.77367 3.92983 3.72806 3.92983H5.85967V2.76314C5.85967 2.34167 6.20134 2 6.62281 2ZM12.6141 5.45611V6.14034C12.6141 6.56181 12.9558 6.90348 13.3773 6.90348C13.7988 6.90348 14.1404 6.56181 14.1404 6.14034V5.45611H16.2719C16.3834 5.45611 16.4737 5.54645 16.4737 5.65789V7.78949H3.52629V5.65789C3.52629 5.54645 3.61662 5.45611 3.72806 5.45611H5.85967V6.14034C5.85967 6.56181 6.20134 6.90348 6.62281 6.90348C7.04428 6.90348 7.38595 6.56181 7.38595 6.14034V5.45611H12.6141ZM16.4737 9.31577V16.2719C16.4737 16.3834 16.3834 16.4737 16.2719 16.4737H3.72806C3.61662 16.4737 3.52629 16.3834 3.52629 16.2719V9.31577H16.4737Z" fill="currentColor"/>
</svg>
