<svg width="16" height="16" viewBox="0 0 16 16" fill="none" xmlns="http://www.w3.org/2000/svg">
<path d="M13.25 10.25C12.8358 10.25 12.5 10.5858 12.5 11V12.5H3.5V11C3.5 10.5858 3.16421 10.25 2.75 10.25C2.33579 10.25 2 10.5858 2 11V12.5C2 13.325 2.675 14 3.5 14H12.5C13.325 14 14 13.325 14 12.5V11C14 10.5858 13.6642 10.25 13.25 10.25ZM11.2207 7.77926C11.513 7.48696 11.513 7.01304 11.2207 6.72074C10.9288 6.42883 10.4557 6.42838 10.1632 6.71972L8.75 8.1275V2.75C8.75 2.33579 8.41421 2 8 2C7.58579 2 7.25 2.33579 7.25 2.75V8.1275L5.83676 6.71972C5.54429 6.42838 5.07116 6.42883 4.77926 6.72074C4.48696 7.01304 4.48696 7.48696 4.77926 7.77926L7.46967 10.4697C7.76256 10.7626 8.23744 10.7626 8.53033 10.4697L11.2207 7.77926Z" fill="currentColor"/>
</svg>
