<svg width="12" height="12" viewBox="0 0 12 12" fill="none" xmlns="http://www.w3.org/2000/svg">
<path fill-rule="evenodd" clip-rule="evenodd" d="M4.12995 3.07027C3.83706 2.77737 3.36219 2.77736 3.06929 3.07025C2.77639 3.36313 2.77638 3.83801 3.06927 4.13091L4.93874 6.00044L3.06943 7.86982C2.77654 8.16272 2.77655 8.63759 3.06945 8.93048C3.36235 9.22337 3.83722 9.22336 4.13011 8.93046L5.99938 7.06112L7.86865 8.93046C8.16154 9.22336 8.63641 9.22337 8.92931 8.93048C9.22221 8.63759 9.22222 8.16272 8.92933 7.86982L7.06002 6.00044L8.92949 4.13091C9.22237 3.83801 9.22237 3.36313 8.92947 3.07025C8.63657 2.77736 8.1617 2.77737 7.86881 3.07027L5.99938 4.93976L4.12995 3.07027Z" fill="currentColor"/>
</svg>
